# xmcd
#
# Track frame offsets: 
#        150
#        10529
#        21956
#        31875
#        41794
#        51797
#        61389
#        73356
#        84741
#        96123
#        108849
#        121579
#        134183
#        148073
#        158156
#        170113
#        185953
#        196590
#        208895
#        221942
#
# Disc length: 3109 seconds
#
# Revision: 0
# Processed by: cddbd v1.5.2PL0 Copyright (c) Steve Scherf et al.
# Submitted via: ExactAudioCopy v0.95b3
#
DISCID=320c2314
DTITLE=The Monkees - The Monkees Complete 28 of 28
DYEAR=1900
DGENRE=
TTITLE0=99 Pounds (alt. mix 1)
TTITLE1=99 Pounds (alt. mix 2)
TTITLE2=Do It In The Name Of Love
TTITLE3=Do It In The Name Of Love (mono)
TTITLE4=Do It In The Name Of Love (alt. mix 1)
TTITLE5=Do It In The Name Of Love (alt. mix 2)
TTITLE6=Do You Feel It Too (alt. mix)
TTITLE7=I Love You Better (alt. mix)
TTITLE8=I Never Thought It Peculiar (alt. mix)
TTITLE9=Lady Jane
TTITLE10=Lady Jane (mono)
TTITLE11=Lady Jane (alt. mix)
TTITLE12=Oh My My (alt. mix)
TTITLE13=Oh My My (fast version)
TTITLE14=Tell Me Love (alt.15 mix)
TTITLE15=Ticket On A Ferry Ride (alt. mix)
TTITLE16=Time And Time Again (Bill Chadwick demo)
TTITLE17=Time And Time Again
TTITLE18=Time And Time Again (alt. mix)
TTITLE19=You're So Good To Me (alt. mix)
EXTD=
EXTT0=
EXTT1=
EXTT2=
EXTT3=
EXTT4=
EXTT5=
EXTT6=
EXTT7=
EXTT8=
EXTT9=
EXTT10=
EXTT11=
EXTT12=
EXTT13=
EXTT14=
EXTT15=
EXTT16=
EXTT17=
EXTT18=
EXTT19=
PLAYORDER=
